<svg xmlns="http://www.w3.org/2000/svg" width="17.3" height="16" viewBox="0 0 17.3 16"><path fill="#fff" d="M17.3 5l-2.9 9.4c-.3.9-1.2 1.6-2.1 1.6h-9.6c-1.1 0-2.2-.8-2.6-1.9-.2-.5-.2-.9 0-1.3 0-.2.1-.4.1-.7 0-.2-.1-.3-.1-.4 0-.2.3-.4.4-.7.4-.6.7-1.4.8-2v-.6l.4-.5c.3-.5.6-1.4.7-1.9 0-.2-.1-.5 0-.6 0-.3.3-.4.4-.6.2-.3.7-1.3.7-1.9 0-.2-.1-.4-.1-.5.1-.2.4-.4.6-.6.4-.6.5-2.1 1.8-1.7l.5-.1h7.9c.5 0 .9.2 1.2.6.3.4.3.9.2 1.4l-2.9 9.4c-.5 1.6-.8 2-2.1 2h-9c-.1 0-.3 0-.4.2-.1.1-.1.2 0 .4.2.6.9.7 1.5.7h9.6c.4 0 .8-.2.9-.6l3.1-10.3c.1-.2.1-.4.1-.6.2.1.5.2.6.4.3.4.4.9.3 1.4zm-11.9 1.7h6.3c.2 0 .4-.1.4-.3l.2-.7c.1-.2 0-.3-.2-.3h-6.3c-.2 0-.4.1-.4.3l-.3.6c0 .2.1.4.3.4zm.8-2.7h6.3c.2 0 .4-.1.4-.3l.3-.7c.1-.2 0-.3-.2-.3h-6.4c-.1 0-.3.1-.4.3l-.2.7c-.1.2 0 .3.2.3z"/></svg>